<svg width="397" height="79" viewBox="0 0 397 79" fill="none" xmlns="http://www.w3.org/2000/svg">
<path d="M41.1353 29.4785L40.1465 29.5225C39.7217 28.5996 39.165 27.7793 38.4766 27.0615C37.8027 26.3438 37.041 25.7358 36.1914 25.2378C35.3564 24.7397 34.4702 24.3662 33.5327 24.1172C32.5952 23.8535 31.665 23.7217 30.7422 23.7217C29.6289 23.7217 28.5815 23.9414 27.6001 24.3809C26.6187 24.8203 25.7178 25.4209 24.8975 26.1826C24.0771 26.9443 23.3374 27.8379 22.6782 28.8633C22.0337 29.874 21.4844 30.958 21.0303 32.1152C20.5908 33.2578 20.2539 34.4443 20.0195 35.6748C19.7852 36.9053 19.668 38.1064 19.668 39.2783C19.668 40.4648 19.8071 41.6294 20.0854 42.772C20.3638 43.9146 20.7593 45.0059 21.272 46.0459C21.7847 47.0713 22.4146 48.0161 23.1616 48.8804C23.9087 49.7446 24.7437 50.499 25.6665 51.1436C26.5894 51.7734 27.6001 52.2642 28.6987 52.6157C29.7974 52.9673 30.9619 53.1431 32.1924 53.1431C33.3057 53.1431 34.2871 53.0405 35.1367 52.8354C35.9863 52.6157 36.7188 52.3447 37.334 52.0225C37.9639 51.7002 38.4912 51.3486 38.916 50.9678C39.3408 50.5723 39.6924 50.1987 39.9707 49.8472C40.249 49.4956 40.4541 49.188 40.5859 48.9243C40.7324 48.646 40.8423 48.4629 40.9155 48.375L40.564 51.4731C40.1831 51.9858 39.6558 52.4619 38.9819 52.9014C38.3228 53.3262 37.5464 53.6997 36.6528 54.022C35.7593 54.3589 34.7632 54.6152 33.6646 54.791C32.5806 54.9814 31.4307 55.0767 30.2148 55.0767C28.6035 55.0767 27.0361 54.9155 25.5127 54.5933C24.0039 54.271 22.583 53.8096 21.25 53.209C19.917 52.6084 18.6938 51.8687 17.5806 50.9897C16.4819 50.0962 15.5298 49.0928 14.7241 47.9795C13.9331 46.8662 13.3105 45.6357 12.8564 44.2881C12.4023 42.9404 12.168 41.4976 12.1533 39.9595C12.1973 37.5864 12.6074 35.4551 13.3838 33.5654C14.1748 31.6611 15.2222 30.0059 16.5259 28.5996C17.8442 27.1787 19.375 26.0068 21.1182 25.084C22.8613 24.1465 24.7217 23.4507 26.6992 22.9966C27.7393 22.7476 28.9331 22.5864 30.2808 22.5132C31.6284 22.4399 32.9834 22.4033 34.3457 22.4033C35.6641 22.4033 36.9019 22.418 38.0591 22.4473C39.231 22.4766 40.2124 22.4912 41.0034 22.4912C40.8423 23.1797 40.7251 23.7949 40.6519 24.3369C40.5933 24.8643 40.564 25.3623 40.564 25.8311C40.564 26.4902 40.6152 27.1055 40.7178 27.6768C40.8203 28.2334 40.9595 28.834 41.1353 29.4785ZM56.8237 54H44.2114V53.187C44.8267 53.187 45.3247 53.1284 45.7056 53.0112C46.0864 52.8794 46.3867 52.7109 46.6064 52.5059C46.8262 52.2861 46.9727 52.0444 47.0459 51.7808C47.1338 51.5024 47.1777 51.2095 47.1777 50.9019V26.644C47.1777 26.4243 47.1338 26.1899 47.0459 25.9409C46.9727 25.6919 46.8262 25.4648 46.6064 25.2598C46.3867 25.04 46.0864 24.8569 45.7056 24.7104C45.3247 24.564 44.8267 24.4907 44.2114 24.4907V23.6777H53.8354V34.3345C54.1284 33.8218 54.48 33.3237 54.8901 32.8403C55.3003 32.3423 55.7764 31.8882 56.3184 31.478C56.875 31.0679 57.4976 30.709 58.186 30.4014C58.8892 30.0938 59.6802 29.8594 60.5591 29.6982C61.7896 29.4785 62.8882 29.4419 63.855 29.5884C64.8218 29.7349 65.6714 30.0132 66.4038 30.4233C67.1362 30.8335 67.7588 31.3608 68.2715 32.0054C68.7842 32.6353 69.2017 33.3384 69.5239 34.1147C69.8462 34.8911 70.0806 35.7188 70.2271 36.5977C70.3735 37.4766 70.4468 38.3555 70.4468 39.2344V50.9019C70.4468 51.1216 70.4834 51.3633 70.5566 51.627C70.6299 51.8906 70.769 52.1396 70.9741 52.374C71.1792 52.5938 71.4722 52.7842 71.853 52.9453C72.2485 53.1064 72.7686 53.187 73.4131 53.187V54H61.0864V53.187C61.7017 53.187 62.1997 53.1284 62.5806 53.0112C62.9614 52.8794 63.2617 52.7109 63.4814 52.5059C63.7012 52.2861 63.8477 52.0444 63.9209 51.7808C64.0088 51.5024 64.0527 51.2095 64.0527 50.9019V37.894C64.0527 36.7515 63.9209 35.7847 63.6572 34.9937C63.3936 34.2026 63.042 33.5801 62.6025 33.126C62.1631 32.6572 61.6504 32.3496 61.0645 32.2031C60.4785 32.0566 59.856 32.064 59.1968 32.2251C58.2886 32.4448 57.4976 32.833 56.8237 33.3896C56.1646 33.9316 55.6152 34.5908 55.1758 35.3672C54.751 36.1289 54.4287 36.9858 54.209 37.938C53.9893 38.8901 53.8647 39.8789 53.8354 40.9043V50.9019C53.8354 51.1216 53.8721 51.3633 53.9453 51.627C54.0186 51.8906 54.1577 52.1396 54.3628 52.374C54.5825 52.5938 54.8828 52.7842 55.2637 52.9453C55.6592 53.1064 56.1792 53.187 56.8237 53.187V54ZM102.461 53.8242C101.421 54.2051 100.461 54.4688 99.5825 54.6152C98.7183 54.7764 97.9272 54.8569 97.2095 54.8569C96.3452 54.8569 95.4956 54.6665 94.6606 54.2856C93.8403 53.9048 93.0566 53.4141 92.3096 52.8135C91.5625 52.2129 90.8594 51.5391 90.2002 50.792C89.5557 50.0449 88.9697 49.3052 88.4424 48.5728C87.9297 47.8403 87.4829 47.1519 87.1021 46.5073C86.7358 45.8628 86.4575 45.3428 86.2671 44.9473C87.688 44.7129 88.9624 44.2954 90.0903 43.6948C90.5737 43.4312 91.0425 43.1235 91.4966 42.772C91.9507 42.4058 92.3535 41.9736 92.7051 41.4756C93.0713 40.9775 93.3643 40.4136 93.584 39.7837C93.8037 39.1538 93.9136 38.436 93.9136 37.6304C93.9136 36.5171 93.7085 35.6016 93.2983 34.8838C92.8882 34.1514 92.3755 33.5728 91.7603 33.1479C91.1597 32.7231 90.5005 32.4302 89.7827 32.269C89.0796 32.0933 88.4351 32.0054 87.8491 32.0054C87.2632 32.0054 86.7725 32.064 86.377 32.1812C85.9961 32.2983 85.6885 32.4521 85.4541 32.6426C85.2344 32.833 85.0806 33.0601 84.9927 33.3237C84.9048 33.5728 84.8608 33.8364 84.8608 34.1147V50.9019C84.8608 51.1216 84.8975 51.3633 84.9707 51.627C85.0439 51.8906 85.1831 52.1396 85.3882 52.374C85.6079 52.5938 85.9082 52.7842 86.2891 52.9453C86.6846 53.1064 87.2046 53.187 87.8491 53.187V54H75.4565V53.187C76.0718 53.187 76.5698 53.1284 76.9507 53.0112C77.3462 52.8794 77.6538 52.7109 77.8735 52.5059C78.0933 52.2861 78.2397 52.0444 78.313 51.7808C78.4009 51.5024 78.4448 51.2095 78.4448 50.9019V33.3896C78.4448 33.1699 78.4009 32.9355 78.313 32.6865C78.2397 32.4229 78.0933 32.1885 77.8735 31.9834C77.6538 31.7637 77.3462 31.5879 76.9507 31.4561C76.5698 31.3096 76.0718 31.2363 75.4565 31.2363V30.3794H87.8491C89.4312 30.3794 90.9839 30.5186 92.5073 30.7969C94.0308 31.0605 95.3857 31.4854 96.5723 32.0713C97.7734 32.6572 98.7402 33.4116 99.4727 34.3345C100.205 35.2427 100.571 36.3413 100.571 37.6304C100.571 38.6558 100.344 39.5566 99.8901 40.333C99.436 41.1094 98.8354 41.7905 98.0884 42.3765C97.3413 42.9478 96.4844 43.4312 95.5176 43.8267C94.5654 44.2075 93.584 44.5225 92.5732 44.7715C93.1299 45.7969 93.7744 46.8149 94.5068 47.8257C95.2393 48.8218 95.979 49.7153 96.7261 50.5063C97.4731 51.2974 98.1909 51.9346 98.8794 52.418C99.5825 52.9014 100.176 53.1431 100.659 53.1431C100.806 53.1431 101.011 53.1284 101.274 53.0991C101.553 53.0552 101.86 52.9673 102.197 52.8354L102.461 53.8242ZM116.765 54H104.417V53.187C105.032 53.187 105.53 53.1284 105.911 53.0112C106.306 52.8794 106.614 52.7109 106.833 52.5059C107.053 52.2861 107.2 52.0444 107.273 51.7808C107.361 51.5024 107.405 51.2095 107.405 50.9019V33.5215C107.405 33.3018 107.368 33.0601 107.295 32.7964C107.222 32.5181 107.075 32.269 106.855 32.0493C106.65 31.8149 106.35 31.6245 105.955 31.478C105.574 31.3169 105.061 31.2363 104.417 31.2363V30.3794H116.765V31.2363C116.179 31.2363 115.688 31.2949 115.293 31.4121C114.912 31.5293 114.604 31.6831 114.37 31.8735C114.15 32.064 113.997 32.291 113.909 32.5547C113.821 32.8037 113.777 33.0674 113.777 33.3457V50.9019C113.777 51.1216 113.813 51.3633 113.887 51.627C113.96 51.8906 114.099 52.1396 114.304 52.374C114.524 52.5938 114.824 52.7842 115.205 52.9453C115.601 53.1064 116.121 53.187 116.765 53.187V54ZM107.207 24.5347C107.207 24.0659 107.295 23.6265 107.471 23.2163C107.661 22.7915 107.91 22.4253 108.218 22.1177C108.525 21.8101 108.884 21.5684 109.294 21.3926C109.719 21.2021 110.166 21.1069 110.635 21.1069C111.104 21.1069 111.543 21.2021 111.953 21.3926C112.378 21.5684 112.744 21.8101 113.052 22.1177C113.359 22.4253 113.601 22.7915 113.777 23.2163C113.967 23.6265 114.062 24.0659 114.062 24.5347C114.062 25.0034 113.967 25.4502 113.777 25.875C113.601 26.2852 113.359 26.644 113.052 26.9517C112.744 27.2593 112.378 27.501 111.953 27.6768C111.543 27.8525 111.104 27.9404 110.635 27.9404C110.166 27.9404 109.719 27.8525 109.294 27.6768C108.884 27.501 108.525 27.2593 108.218 26.9517C107.91 26.644 107.661 26.2852 107.471 25.875C107.295 25.4502 107.207 25.0034 107.207 24.5347ZM126.565 54.4395C125.525 54.4395 124.675 54.4028 124.016 54.3296C123.372 54.271 122.837 54.1978 122.412 54.1099C122.002 54.022 121.665 53.9487 121.401 53.8901C121.138 53.8169 120.867 53.7803 120.588 53.7803C120.706 53.2822 120.786 52.8281 120.83 52.418C120.874 52.0078 120.896 51.6343 120.896 51.2974C120.896 50.7993 120.852 50.3379 120.764 49.9131C120.676 49.4736 120.574 49.0195 120.457 48.5508L121.204 48.5068C121.526 49.21 121.995 49.8325 122.61 50.3745C123.24 50.9019 123.936 51.3486 124.697 51.7148C125.474 52.0811 126.279 52.3594 127.114 52.5498C127.949 52.7402 128.74 52.8354 129.487 52.8354C130.41 52.8354 131.23 52.7183 131.948 52.4839C132.666 52.2349 133.274 51.8979 133.772 51.4731C134.27 51.0483 134.644 50.543 134.893 49.957C135.156 49.3711 135.288 48.7266 135.288 48.0234C135.288 47.2764 135.134 46.6685 134.827 46.1997C134.534 45.7163 134.124 45.3281 133.596 45.0352C133.069 44.7422 132.454 44.5298 131.75 44.3979C131.047 44.2515 130.293 44.1343 129.487 44.0464C128.872 43.9878 128.213 43.9146 127.51 43.8267C126.807 43.7388 126.104 43.6069 125.4 43.4312C124.697 43.2554 124.016 43.021 123.357 42.728C122.712 42.4351 122.141 42.0615 121.643 41.6074C121.145 41.1533 120.742 40.604 120.435 39.9595C120.142 39.3003 119.995 38.5239 119.995 37.6304C119.995 36.5757 120.208 35.6528 120.632 34.8618C121.057 34.0708 121.614 33.3896 122.302 32.8184C123.005 32.2471 123.811 31.7783 124.719 31.4121C125.627 31.0459 126.558 30.7603 127.51 30.5552C128.477 30.3354 129.429 30.1816 130.366 30.0938C131.318 30.0059 132.183 29.9619 132.959 29.9619C134.336 29.9619 135.537 30.0352 136.562 30.1816C137.603 30.3135 138.474 30.3794 139.177 30.3794C139.031 30.8921 138.928 31.3901 138.87 31.8735C138.826 32.3423 138.804 32.7598 138.804 33.126C138.804 33.5947 138.84 34.0488 138.914 34.4883C139.001 34.9131 139.119 35.3599 139.265 35.8286L138.496 35.8726C138.232 35.2573 137.976 34.6934 137.727 34.1807C137.493 33.6533 137.126 33.2065 136.628 32.8403C136.145 32.4595 135.464 32.1665 134.585 31.9614C133.706 31.7417 132.49 31.6318 130.938 31.6318C130.439 31.6318 129.919 31.7197 129.377 31.8955C128.835 32.0566 128.337 32.313 127.883 32.6646C127.444 33.0015 127.078 33.4263 126.785 33.939C126.492 34.4517 126.345 35.0522 126.345 35.7407C126.345 36.6489 126.543 37.3667 126.938 37.894C127.349 38.4214 127.839 38.8315 128.411 39.1245C128.982 39.4028 129.575 39.5933 130.19 39.6958C130.806 39.7837 131.326 39.8423 131.75 39.8716C132.278 39.9155 132.886 39.9814 133.574 40.0693C134.277 40.1572 134.988 40.2964 135.706 40.4868C136.438 40.6626 137.156 40.897 137.859 41.1899C138.562 41.4829 139.192 41.8638 139.749 42.3325C140.305 42.8013 140.752 43.3726 141.089 44.0464C141.426 44.7056 141.594 45.4893 141.594 46.3975C141.594 47.5986 141.375 48.6313 140.935 49.4956C140.496 50.3599 139.895 51.0923 139.133 51.6929C138.386 52.2788 137.507 52.7549 136.497 53.1211C135.5 53.4873 134.446 53.7656 133.333 53.9561C132.219 54.1465 131.084 54.271 129.927 54.3296C128.77 54.4028 127.649 54.4395 126.565 54.4395ZM144.143 31.7637C144.553 30.958 144.81 30.1597 144.912 29.3687C145.029 28.563 145.088 27.8599 145.088 27.2593C145.088 27.0981 145.081 26.959 145.066 26.8418C145.066 26.71 145.066 26.6001 145.066 26.5122C145.051 26.4097 145.044 26.3145 145.044 26.2266L145.857 26.0947C145.901 26.7539 146.077 27.3179 146.384 27.7866C146.707 28.2554 147.095 28.6509 147.549 28.9731C148.018 29.2808 148.53 29.5298 149.087 29.7202C149.644 29.9106 150.193 30.0571 150.735 30.1597C151.277 30.2476 151.775 30.3062 152.229 30.3354C152.698 30.3647 153.079 30.3794 153.372 30.3794H170.554C170.159 31.1997 169.902 32.0054 169.785 32.7964C169.668 33.5874 169.609 34.2832 169.609 34.8838C169.609 35.0449 169.609 35.1914 169.609 35.3232C169.609 35.4404 169.617 35.543 169.631 35.6309C169.631 35.7334 169.639 35.8286 169.653 35.9165L168.862 36.0483C168.804 35.3892 168.613 34.8252 168.291 34.3564C167.983 33.8877 167.595 33.4995 167.126 33.1919C166.672 32.8696 166.167 32.6133 165.61 32.4229C165.054 32.2324 164.504 32.0933 163.962 32.0054C163.435 31.9028 162.937 31.8369 162.468 31.8076C162 31.7783 161.626 31.7637 161.348 31.7637H160.93C159.539 31.8369 158.293 32.1812 157.195 32.7964C156.111 33.397 155.188 34.1953 154.426 35.1914C153.679 36.1729 153.101 37.3008 152.69 38.5752C152.295 39.8496 152.09 41.1826 152.075 42.5742C152.075 43.9658 152.192 45.3062 152.427 46.5952C152.661 47.8696 153.035 48.9976 153.547 49.979C154.06 50.9604 154.734 51.7441 155.569 52.3301C156.404 52.9014 157.415 53.187 158.601 53.187C159.465 53.187 160.212 53.0479 160.842 52.7695C161.472 52.4912 162.014 52.1104 162.468 51.627C162.922 51.1289 163.311 50.5503 163.633 49.8911C163.955 49.2319 164.241 48.5142 164.49 47.7378L169.653 49.4956C169.126 50.2427 168.518 50.9312 167.83 51.561C167.156 52.1909 166.372 52.7402 165.479 53.209C164.6 53.6631 163.604 54.022 162.49 54.2856C161.377 54.5493 160.125 54.6812 158.733 54.6812C157.253 54.6812 155.898 54.52 154.668 54.1978C153.452 53.8755 152.354 53.4287 151.372 52.8574C150.405 52.2861 149.556 51.6196 148.823 50.8579C148.105 50.0815 147.505 49.2466 147.021 48.353C146.538 47.4595 146.179 46.5293 145.945 45.5625C145.71 44.5957 145.593 43.6289 145.593 42.6621C145.593 41.4316 145.776 40.2671 146.143 39.1685C146.509 38.0552 147.036 37.0371 147.725 36.1143C148.428 35.1768 149.292 34.3418 150.317 33.6094C151.343 32.877 152.515 32.2617 153.833 31.7637H144.143ZM172.708 30.3794H182.354V32.8403C182.69 32.4009 183.071 31.9907 183.496 31.6099C183.921 31.229 184.39 30.8994 184.902 30.6211C185.415 30.3281 185.979 30.1011 186.594 29.9399C187.224 29.7788 187.905 29.6982 188.638 29.6982C189.502 29.6982 190.308 29.8154 191.055 30.0498C191.802 30.2842 192.476 30.6138 193.076 31.0386C193.677 31.4487 194.211 31.9468 194.68 32.5327C195.149 33.1187 195.537 33.7632 195.845 34.4663C196.182 33.8364 196.577 33.2358 197.031 32.6646C197.5 32.0786 198.035 31.5659 198.635 31.1265C199.236 30.687 199.91 30.3428 200.657 30.0938C201.418 29.8301 202.275 29.6982 203.228 29.6982C204.561 29.6982 205.74 29.9619 206.765 30.4893C207.805 31.0166 208.677 31.7417 209.38 32.6646C210.083 33.5728 210.61 34.6348 210.962 35.8506C211.328 37.0518 211.511 38.3335 211.511 39.6958V51.0337C211.511 51.2534 211.548 51.4878 211.621 51.7368C211.709 51.9858 211.863 52.2202 212.083 52.4399C212.302 52.645 212.603 52.8208 212.983 52.9673C213.364 53.1138 213.862 53.187 214.478 53.187V54H201.931V53.187C202.502 53.187 202.979 53.1357 203.359 53.0332C203.74 52.916 204.041 52.7622 204.26 52.5718C204.495 52.3813 204.656 52.1616 204.744 51.9126C204.846 51.6489 204.897 51.3706 204.897 51.0776V38.3335C204.897 37.2056 204.81 36.2534 204.634 35.4771C204.458 34.7007 204.216 34.0708 203.909 33.5874C203.601 33.104 203.242 32.7598 202.832 32.5547C202.422 32.335 201.982 32.2251 201.514 32.2251C200.913 32.2251 200.334 32.3862 199.778 32.7085C199.236 33.0308 198.752 33.5435 198.328 34.2466C197.903 34.9351 197.559 35.8213 197.295 36.9053C197.046 37.9746 196.921 39.2637 196.921 40.7725V50.9019C196.921 51.1216 196.958 51.3633 197.031 51.627C197.104 51.8906 197.244 52.1396 197.449 52.374C197.654 52.5938 197.947 52.7842 198.328 52.9453C198.723 53.1064 199.243 53.187 199.888 53.187V54H187.341V53.187C187.913 53.187 188.389 53.1357 188.77 53.0332C189.15 52.916 189.451 52.7622 189.67 52.5718C189.905 52.3813 190.066 52.1616 190.154 51.9126C190.256 51.6489 190.308 51.3706 190.308 51.0776V38.3335C190.308 37.2056 190.22 36.2534 190.044 35.4771C189.868 34.7007 189.626 34.0708 189.319 33.5874C189.026 33.104 188.674 32.7598 188.264 32.5547C187.854 32.335 187.415 32.2251 186.946 32.2251C186.36 32.2251 185.789 32.3862 185.232 32.7085C184.69 33.0161 184.207 33.5068 183.782 34.1807C183.372 34.8398 183.035 35.6895 182.771 36.7295C182.522 37.7695 182.397 39.0146 182.397 40.4648V51.2974C182.397 51.5171 182.441 51.7368 182.529 51.9565C182.632 52.1763 182.793 52.3813 183.013 52.5718C183.247 52.7476 183.547 52.894 183.914 53.0112C184.294 53.1284 184.763 53.187 185.32 53.187V54H172.708V53.187C173.323 53.187 173.821 53.1284 174.202 53.0112C174.597 52.8794 174.905 52.7109 175.125 52.5059C175.344 52.2861 175.491 52.0444 175.564 51.7808C175.652 51.5024 175.696 51.2095 175.696 50.9019V33.4775C175.696 33.2578 175.659 33.0161 175.586 32.7524C175.513 32.4888 175.366 32.2471 175.146 32.0273C174.941 31.793 174.641 31.5952 174.246 31.4341C173.865 31.2729 173.352 31.1924 172.708 31.1924V30.3794ZM230.474 29.4346C231.572 29.4346 232.576 29.5518 233.484 29.7861C234.407 30.0205 235.22 30.3062 235.923 30.6431C236.641 30.98 237.256 31.3389 237.769 31.7197C238.296 32.1006 238.713 32.4448 239.021 32.7524C239.475 32.4009 239.966 32.0859 240.493 31.8076C241.021 31.5146 241.555 31.2656 242.097 31.0605C242.639 30.8555 243.174 30.7017 243.701 30.5991C244.243 30.4819 244.756 30.4087 245.239 30.3794L245.503 31.1045C244.917 31.3389 244.39 31.7197 243.921 32.2471C243.525 32.7012 243.159 33.3237 242.822 34.1147C242.485 34.9058 242.302 35.9385 242.273 37.2129C242.258 37.96 242.251 38.7363 242.251 39.542C242.251 40.3477 242.244 41.146 242.229 41.937C242.229 42.7134 242.222 43.4604 242.207 44.1782C242.207 44.8813 242.2 45.5112 242.185 46.0679C242.185 46.6245 242.185 47.0786 242.185 47.4302C242.185 47.7671 242.185 47.9648 242.185 48.0234C242.185 49.2979 242.346 50.3306 242.668 51.1216C243.005 51.9126 243.379 52.5352 243.789 52.9893C244.272 53.5166 244.814 53.8975 245.415 54.1318L245.151 54.8569C244.434 54.8276 243.665 54.7031 242.844 54.4834C242.024 54.2637 241.226 53.9561 240.449 53.5605C239.673 53.165 238.955 52.6963 238.296 52.1543C237.637 51.5977 237.102 50.9678 236.692 50.2646C236.399 50.8213 236.025 51.3633 235.571 51.8906C235.117 52.418 234.561 52.8867 233.901 53.2969C233.242 53.707 232.466 54.0366 231.572 54.2856C230.679 54.5493 229.653 54.6812 228.496 54.6812C226.592 54.6812 224.915 54.3442 223.464 53.6704C222.029 52.9819 220.828 52.0884 219.861 50.9897C218.894 49.8765 218.162 48.624 217.664 47.2324C217.18 45.8408 216.938 44.4346 216.938 43.0137C216.938 41.9443 217.063 40.8677 217.312 39.7837C217.576 38.6997 217.957 37.6597 218.455 36.6636C218.967 35.6528 219.597 34.708 220.344 33.8291C221.106 32.9502 221.985 32.1885 222.981 31.5439C223.992 30.8848 225.12 30.3721 226.365 30.0059C227.61 29.625 228.979 29.4346 230.474 29.4346ZM230.562 52.374C231.587 52.374 232.437 52.1396 233.11 51.6709C233.784 51.2021 234.319 50.6309 234.714 49.957C235.125 49.2832 235.425 48.5728 235.615 47.8257C235.806 47.0786 235.938 46.4194 236.011 45.8481L236.187 37.5205C236.157 37.2129 236.099 36.8394 236.011 36.3999C235.938 35.9604 235.82 35.5063 235.659 35.0376C235.498 34.5688 235.286 34.1001 235.022 33.6313C234.773 33.1479 234.451 32.7231 234.055 32.3569C233.66 31.9907 233.184 31.6904 232.627 31.4561C232.085 31.2217 231.448 31.1045 230.715 31.1045C229.617 31.1045 228.621 31.3828 227.727 31.9395C226.833 32.4961 226.072 33.2578 225.442 34.2246C224.812 35.1768 224.321 36.29 223.97 37.5645C223.633 38.8389 223.464 40.1938 223.464 41.6294C223.464 43.5044 223.662 45.1157 224.058 46.4634C224.468 47.811 225.002 48.9243 225.662 49.8032C226.335 50.6821 227.097 51.334 227.947 51.7588C228.796 52.1689 229.668 52.374 230.562 52.374ZM255.369 54.4395C254.329 54.4395 253.479 54.4028 252.82 54.3296C252.175 54.271 251.641 54.1978 251.216 54.1099C250.806 54.022 250.469 53.9487 250.205 53.8901C249.941 53.8169 249.67 53.7803 249.392 53.7803C249.509 53.2822 249.59 52.8281 249.634 52.418C249.678 52.0078 249.7 51.6343 249.7 51.2974C249.7 50.7993 249.656 50.3379 249.568 49.9131C249.48 49.4736 249.377 49.0195 249.26 48.5508L250.007 48.5068C250.33 49.21 250.798 49.8325 251.414 50.3745C252.043 50.9019 252.739 51.3486 253.501 51.7148C254.277 52.0811 255.083 52.3594 255.918 52.5498C256.753 52.7402 257.544 52.8354 258.291 52.8354C259.214 52.8354 260.034 52.7183 260.752 52.4839C261.47 52.2349 262.078 51.8979 262.576 51.4731C263.074 51.0483 263.447 50.543 263.696 49.957C263.96 49.3711 264.092 48.7266 264.092 48.0234C264.092 47.2764 263.938 46.6685 263.63 46.1997C263.337 45.7163 262.927 45.3281 262.4 45.0352C261.873 44.7422 261.257 44.5298 260.554 44.3979C259.851 44.2515 259.097 44.1343 258.291 44.0464C257.676 43.9878 257.017 43.9146 256.313 43.8267C255.61 43.7388 254.907 43.6069 254.204 43.4312C253.501 43.2554 252.82 43.021 252.161 42.728C251.516 42.4351 250.945 42.0615 250.447 41.6074C249.949 41.1533 249.546 40.604 249.238 39.9595C248.945 39.3003 248.799 38.5239 248.799 37.6304C248.799 36.5757 249.011 35.6528 249.436 34.8618C249.861 34.0708 250.417 33.3896 251.106 32.8184C251.809 32.2471 252.615 31.7783 253.523 31.4121C254.431 31.0459 255.361 30.7603 256.313 30.5552C257.28 30.3354 258.232 30.1816 259.17 30.0938C260.122 30.0059 260.986 29.9619 261.763 29.9619C263.14 29.9619 264.341 30.0352 265.366 30.1816C266.406 30.3135 267.278 30.3794 267.981 30.3794C267.834 30.8921 267.732 31.3901 267.673 31.8735C267.629 32.3423 267.607 32.7598 267.607 33.126C267.607 33.5947 267.644 34.0488 267.717 34.4883C267.805 34.9131 267.922 35.3599 268.069 35.8286L267.3 35.8726C267.036 35.2573 266.78 34.6934 266.531 34.1807C266.296 33.6533 265.93 33.2065 265.432 32.8403C264.949 32.4595 264.268 32.1665 263.389 31.9614C262.51 31.7417 261.294 31.6318 259.741 31.6318C259.243 31.6318 258.723 31.7197 258.181 31.8955C257.639 32.0566 257.141 32.313 256.687 32.6646C256.248 33.0015 255.881 33.4263 255.588 33.939C255.295 34.4517 255.149 35.0522 255.149 35.7407C255.149 36.6489 255.347 37.3667 255.742 37.894C256.152 38.4214 256.643 38.8315 257.214 39.1245C257.786 39.4028 258.379 39.5933 258.994 39.6958C259.609 39.7837 260.129 39.8423 260.554 39.8716C261.082 39.9155 261.689 39.9814 262.378 40.0693C263.081 40.1572 263.792 40.2964 264.509 40.4868C265.242 40.6626 265.959 40.897 266.663 41.1899C267.366 41.4829 267.996 41.8638 268.552 42.3325C269.109 42.8013 269.556 43.3726 269.893 44.0464C270.229 44.7056 270.398 45.4893 270.398 46.3975C270.398 47.5986 270.178 48.6313 269.739 49.4956C269.299 50.3599 268.699 51.0923 267.937 51.6929C267.19 52.2788 266.311 52.7549 265.3 53.1211C264.304 53.4873 263.25 53.7656 262.136 53.9561C261.023 54.1465 259.888 54.271 258.73 54.3296C257.573 54.4028 256.453 54.4395 255.369 54.4395ZM284.197 31.7637C284.607 30.958 284.863 30.1597 284.966 29.3687C285.083 28.563 285.142 27.8599 285.142 27.2593C285.142 27.0981 285.134 26.959 285.12 26.8418C285.12 26.71 285.12 26.6001 285.12 26.5122C285.105 26.4097 285.098 26.3145 285.098 26.2266L285.911 26.0947C285.955 26.7539 286.13 27.3179 286.438 27.7866C286.76 28.2554 287.148 28.6509 287.603 28.9731C288.071 29.2808 288.584 29.5298 289.141 29.7202C289.697 29.9106 290.247 30.0571 290.789 30.1597C291.331 30.2476 291.829 30.3062 292.283 30.3354C292.751 30.3647 293.132 30.3794 293.425 30.3794H310.608C310.212 31.1997 309.956 32.0054 309.839 32.7964C309.722 33.5874 309.663 34.2832 309.663 34.8838C309.663 35.0449 309.663 35.1914 309.663 35.3232C309.663 35.4404 309.67 35.543 309.685 35.6309C309.685 35.7334 309.692 35.8286 309.707 35.9165L308.916 36.0483C308.857 35.3892 308.667 34.8252 308.345 34.3564C308.037 33.8877 307.649 33.4995 307.18 33.1919C306.726 32.8696 306.221 32.6133 305.664 32.4229C305.107 32.2324 304.558 32.0933 304.016 32.0054C303.489 31.9028 302.991 31.8369 302.522 31.8076C302.053 31.7783 301.68 31.7637 301.401 31.7637H300.984C299.592 31.8369 298.347 32.1812 297.249 32.7964C296.165 33.397 295.242 34.1953 294.48 35.1914C293.733 36.1729 293.154 37.3008 292.744 38.5752C292.349 39.8496 292.144 41.1826 292.129 42.5742C292.129 43.9658 292.246 45.3062 292.48 46.5952C292.715 47.8696 293.088 48.9976 293.601 49.979C294.114 50.9604 294.788 51.7441 295.623 52.3301C296.458 52.9014 297.468 53.187 298.655 53.187C299.519 53.187 300.266 53.0479 300.896 52.7695C301.526 52.4912 302.068 52.1104 302.522 51.627C302.976 51.1289 303.364 50.5503 303.687 49.8911C304.009 49.2319 304.294 48.5142 304.543 47.7378L309.707 49.4956C309.18 50.2427 308.572 50.9312 307.883 51.561C307.209 52.1909 306.426 52.7402 305.532 53.209C304.653 53.6631 303.657 54.022 302.544 54.2856C301.431 54.5493 300.178 54.6812 298.787 54.6812C297.307 54.6812 295.952 54.52 294.722 54.1978C293.506 53.8755 292.407 53.4287 291.426 52.8574C290.459 52.2861 289.609 51.6196 288.877 50.8579C288.159 50.0815 287.559 49.2466 287.075 48.353C286.592 47.4595 286.233 46.5293 285.999 45.5625C285.764 44.5957 285.647 43.6289 285.647 42.6621C285.647 41.4316 285.83 40.2671 286.196 39.1685C286.562 38.0552 287.09 37.0371 287.778 36.1143C288.481 35.1768 289.346 34.3418 290.371 33.6094C291.396 32.877 292.568 32.2617 293.887 31.7637H284.197ZM326.626 29.4346C327.725 29.4346 328.728 29.5518 329.636 29.7861C330.559 30.0205 331.372 30.3062 332.075 30.6431C332.793 30.98 333.408 31.3389 333.921 31.7197C334.448 32.1006 334.866 32.4448 335.173 32.7524C335.627 32.4009 336.118 32.0859 336.646 31.8076C337.173 31.5146 337.708 31.2656 338.25 31.0605C338.792 30.8555 339.326 30.7017 339.854 30.5991C340.396 30.4819 340.908 30.4087 341.392 30.3794L341.655 31.1045C341.069 31.3389 340.542 31.7197 340.073 32.2471C339.678 32.7012 339.312 33.3237 338.975 34.1147C338.638 34.9058 338.455 35.9385 338.425 37.2129C338.411 37.96 338.403 38.7363 338.403 39.542C338.403 40.3477 338.396 41.146 338.381 41.937C338.381 42.7134 338.374 43.4604 338.359 44.1782C338.359 44.8813 338.352 45.5112 338.337 46.0679C338.337 46.6245 338.337 47.0786 338.337 47.4302C338.337 47.7671 338.337 47.9648 338.337 48.0234C338.337 49.2979 338.499 50.3306 338.821 51.1216C339.158 51.9126 339.531 52.5352 339.941 52.9893C340.425 53.5166 340.967 53.8975 341.567 54.1318L341.304 54.8569C340.586 54.8276 339.817 54.7031 338.997 54.4834C338.176 54.2637 337.378 53.9561 336.602 53.5605C335.825 53.165 335.107 52.6963 334.448 52.1543C333.789 51.5977 333.254 50.9678 332.844 50.2646C332.551 50.8213 332.178 51.3633 331.724 51.8906C331.27 52.418 330.713 52.8867 330.054 53.2969C329.395 53.707 328.618 54.0366 327.725 54.2856C326.831 54.5493 325.806 54.6812 324.648 54.6812C322.744 54.6812 321.067 54.3442 319.617 53.6704C318.181 52.9819 316.98 52.0884 316.013 50.9897C315.046 49.8765 314.314 48.624 313.816 47.2324C313.333 45.8408 313.091 44.4346 313.091 43.0137C313.091 41.9443 313.215 40.8677 313.464 39.7837C313.728 38.6997 314.109 37.6597 314.607 36.6636C315.12 35.6528 315.75 34.708 316.497 33.8291C317.258 32.9502 318.137 32.1885 319.133 31.5439C320.144 30.8848 321.272 30.3721 322.517 30.0059C323.762 29.625 325.132 29.4346 326.626 29.4346ZM326.714 52.374C327.739 52.374 328.589 52.1396 329.263 51.6709C329.937 51.2021 330.471 50.6309 330.867 49.957C331.277 49.2832 331.577 48.5728 331.768 47.8257C331.958 47.0786 332.09 46.4194 332.163 45.8481L332.339 37.5205C332.31 37.2129 332.251 36.8394 332.163 36.3999C332.09 35.9604 331.973 35.5063 331.812 35.0376C331.65 34.5688 331.438 34.1001 331.174 33.6313C330.925 33.1479 330.603 32.7231 330.208 32.3569C329.812 31.9907 329.336 31.6904 328.779 31.4561C328.237 31.2217 327.6 31.1045 326.868 31.1045C325.769 31.1045 324.773 31.3828 323.879 31.9395C322.986 32.4961 322.224 33.2578 321.594 34.2246C320.964 35.1768 320.474 36.29 320.122 37.5645C319.785 38.8389 319.617 40.1938 319.617 41.6294C319.617 43.5044 319.814 45.1157 320.21 46.4634C320.62 47.811 321.155 48.9243 321.814 49.8032C322.488 50.6821 323.25 51.334 324.099 51.7588C324.949 52.1689 325.82 52.374 326.714 52.374ZM344.094 53.187C344.666 53.187 345.142 53.1357 345.522 53.0332C345.903 52.916 346.204 52.7622 346.423 52.5718C346.658 52.3813 346.819 52.1616 346.907 51.9126C347.009 51.6489 347.061 51.3706 347.061 51.0776V22.3594C347.061 22.1396 347.017 21.9053 346.929 21.6562C346.855 21.3926 346.709 21.1582 346.489 20.9531C346.27 20.7334 345.969 20.5576 345.588 20.4258C345.208 20.2793 344.709 20.2061 344.094 20.2061V19.3491H353.455V51.0337C353.455 51.2534 353.491 51.4878 353.564 51.7368C353.652 51.9858 353.806 52.2202 354.026 52.4399C354.246 52.645 354.546 52.8208 354.927 52.9673C355.322 53.1138 355.82 53.187 356.421 53.187V54H344.094V53.187ZM366.243 40.2671C366.213 40.5894 366.199 40.9043 366.199 41.2119C366.199 41.5049 366.199 41.8052 366.199 42.1128C366.199 43.5044 366.287 44.8594 366.462 46.1777C366.638 47.4961 366.96 48.668 367.429 49.6934C367.913 50.7188 368.579 51.5537 369.429 52.1982C370.278 52.8281 371.377 53.1577 372.725 53.187C373.589 53.187 374.358 53.0479 375.032 52.7695C375.72 52.4912 376.321 52.1104 376.833 51.627C377.346 51.1289 377.786 50.5503 378.152 49.8911C378.518 49.2319 378.826 48.5142 379.075 47.7378L384.26 49.4956C383.733 50.2427 383.103 50.9312 382.371 51.561C381.638 52.1909 380.796 52.7402 379.844 53.209C378.906 53.6631 377.852 54.022 376.68 54.2856C375.522 54.5493 374.248 54.6812 372.856 54.6812C371.289 54.6812 369.868 54.5054 368.594 54.1538C367.319 53.8169 366.177 53.3481 365.166 52.7476C364.17 52.147 363.298 51.4438 362.551 50.6382C361.819 49.8179 361.204 48.9463 360.706 48.0234C360.222 47.1006 359.863 46.1411 359.629 45.145C359.395 44.1489 359.277 43.1675 359.277 42.2007C359.277 41.2778 359.38 40.333 359.585 39.3662C359.805 38.3848 360.142 37.4253 360.596 36.4878C361.05 35.5503 361.621 34.6714 362.31 33.8511C363.013 33.0161 363.848 32.2837 364.814 31.6538C365.796 31.0239 366.917 30.5259 368.176 30.1597C369.436 29.7935 370.85 29.6104 372.417 29.6104C374.717 29.6104 376.672 29.896 378.284 30.4673C379.91 31.0386 381.243 31.8149 382.283 32.7964C383.337 33.7632 384.121 34.8911 384.634 36.1802C385.161 37.4692 385.483 38.8315 385.601 40.2671H366.243ZM372.549 31.1484C371.479 31.1484 370.571 31.3462 369.824 31.7417C369.092 32.1372 368.484 32.6792 368 33.3677C367.517 34.0562 367.144 34.8691 366.88 35.8066C366.631 36.7295 366.448 37.7256 366.331 38.7949H378.723C378.635 37.7402 378.474 36.7515 378.24 35.8286C378.02 34.9058 377.676 34.1001 377.207 33.4116C376.753 32.7085 376.145 32.1592 375.383 31.7637C374.636 31.3535 373.691 31.1484 372.549 31.1484Z" fill="#AD2D24"/>
</svg>
